# xmcd
#
# Track frame offsets: 
#        150
#        13250
#        25957
#        39045
#        47255
#        58707
#        67295
#        79895
#        90267
#        101322
#        112370
#        124557
#        137577
#        152362
#        166162
#        183267
#        194002
#        215107
#        232490
#        249162
#
# Disc length: 3482 seconds
#
# Revision: 2
# Processed by: cddbd v1.5.2PL0 Copyright (c) Steve Scherf et al.
# Submitted via: ExactAudioCopyFreeDBPlugin 1.0
#
DISCID=0e0d9814
DTITLE=Various Artist - The Excello Story, 1952-1975
DYEAR=1999
DGENRE=Rhythm and Blues
TTITLE0=Slim Harpo - Baby, Scratch My Back
TTITLE1=Lightnin' Slim - I'm Tired Waitin' Baby
TTITLE2=Lonesome Sundown - Lonesome, Lonely Blues
TTITLE3=Charles Sheffield - It's Your Voodoo Working
TTITLE4=Tabby Thomas - Hoodoo Party
TTITLE5=Little Sonny - Love Shock
TTITLE6=Baby Boy Warren - Not Welcome Any More
TTITLE7=Jimmy Anderson - Naggin'
TTITLE8=Silas Hogan - Trouble at Home Blues
TTITLE9=Whispering Smith - Mean Woman Blues
TTITLE10=Lightnin' Slim - Winter Time Blues
TTITLE11=Slim Harpo - Tip On In (Part 1)
TTITLE12=The Kelly Brothers - You Put Your Touch on Me
TTITLE13=Tiny Watkins - Soldier's Sad Story
TTITLE14=Kip Anderson - You'll Lose a Good Thing
TTITLE15=Marva Whitney - Live and Let Live
TTITLE16=Jerry Washington - Right Here is Where You Belong
TTITLE17=Eugene Kemp - Power is Gone
TTITLE18=Roshell Anderson - Snake Out of Green Grass (Part 1)
TTITLE19=Freddie North - She's All I Got
EXTD=
EXTT0=
EXTT1=
EXTT2=
EXTT3=
EXTT4=
EXTT5=
EXTT6=
EXTT7=
EXTT8=
EXTT9=
EXTT10=
EXTT11=
EXTT12=
EXTT13=
EXTT14=
EXTT15=
EXTT16=
EXTT17=
EXTT18=
EXTT19=
PLAYORDER=
